# xmcd
#
# Track frame offsets:
# 150
# 14663
# 31931
# 45771
# 63692
# 72999
# 81622
# 92373
# 110893
# 124213
# 132421
#
# Disc length: 1906 seconds
#
#
# Revision: 0
# Processed by: cddbd v1.5.2PL0 Copyright (c) Steve Scherf et al.
# Submitted via: FreeRIP 2.944 
#
DISCID=9c07700b
DTITLE=Lenny and The Piss Poor Boys - Cambridgeport Saloon
DYEAR=2006
DGENRE=Country
TTITLE0=Wrong Side Of The Tracks
TTITLE1=Beat On The Brat
TTITLE2=Cambridgeport Saloon
TTITLE3=Two Robbers
TTITLE4=Whiskey and Water
TTITLE5=Lowenbrau
TTITLE6=Hard Life
TTITLE7=Lonely Days and Whiskey Nights
TTITLE8=Shot Of Bourbon
TTITLE9=Leaving In The Morning
TTITLE10=Can't Take Anymore
EXTD=
EXTT0=
EXTT1=
EXTT2=
EXTT3=
EXTT4=
EXTT5=
EXTT6=
EXTT7=
EXTT8=
EXTT9=
EXTT10=
PLAYORDER=
